<svg width="80" height="30" viewBox="0 0 80 30" fill="none" xmlns="http://www.w3.org/2000/svg">
<g clip-path="url(#clip0_3694_1377)">
<path d="M14.25 24.1955L19.3537 0.275391H36.6712L35.5259 5.49816H25.3553L24.5214 9.56439H33.0245L31.9524 14.677H23.4127L22.5056 18.9819H32.6763L31.5676 24.1955H14.25Z" fill="#EE2D42"/>
<path d="M34.8633 24.1955L39.9578 0.275391H51.3104C53.0239 0.275391 54.3616 0.458968 55.3237 0.816943C56.2858 1.17492 56.9638 1.70729 57.3578 2.41406C57.7518 3.12083 57.9443 4.01118 57.9443 5.07593C57.9443 5.58994 57.8984 6.14985 57.8068 6.7832C57.7152 7.40736 57.5961 8.07741 57.4586 8.80254C57.1837 9.95908 56.8722 11.0238 56.5424 11.9968C56.2033 12.9697 55.736 13.805 55.1405 14.5026C54.5357 15.2002 53.7202 15.7326 52.6757 16.0997C51.6311 16.4669 50.2659 16.6596 48.5799 16.6596H43.6504L42.0194 24.2047H34.8633V24.1955ZM44.7132 11.547H46.8665C47.517 11.547 48.0302 11.5103 48.4242 11.446C48.8182 11.3726 49.1297 11.2349 49.3588 11.0146C49.5878 10.7944 49.7711 10.4915 49.9177 10.0968C50.0551 9.70207 50.1926 9.16052 50.33 8.46292C50.4033 8.06823 50.4675 7.71944 50.5224 7.41654C50.5774 7.11363 50.6049 6.85663 50.6049 6.65469C50.6049 6.30589 50.5224 6.04889 50.3575 5.87449C50.1926 5.70009 49.9452 5.58077 49.6153 5.50733C49.2763 5.4339 48.7998 5.40637 48.1768 5.40637H46.0235L44.7132 11.547Z" fill="#EE2D42"/>
<path d="M67.5012 24.48C66.5025 24.48 65.4396 24.4525 64.3126 24.4066C63.1764 24.3607 62.0952 24.2872 61.0507 24.1771C60.0061 24.0761 59.1082 23.9752 58.3477 23.8834L59.3556 18.8809C60.1894 18.9543 61.0232 19.0186 61.8753 19.092C62.7183 19.1654 63.5154 19.2113 64.2668 19.2297C65.0181 19.2572 65.6595 19.2664 66.191 19.2664C66.8598 19.2664 67.4188 19.2572 67.8769 19.2297C68.3259 19.2113 68.7016 19.1654 68.9856 19.1104C69.2788 19.0553 69.5079 18.9819 69.7003 18.8809C69.8377 18.835 69.9569 18.734 70.0485 18.5872C70.1401 18.4403 70.2317 18.2751 70.305 18.1007C70.3875 17.9263 70.4516 17.7427 70.5158 17.5408C70.5708 17.348 70.6166 17.1369 70.6349 16.9166C70.6624 16.6963 70.6715 16.5036 70.6715 16.3384C70.6715 16.0814 70.6166 15.8886 70.5158 15.7601C70.415 15.6316 70.1584 15.5214 69.7553 15.4297C69.3521 15.3379 68.7199 15.2185 67.8677 15.0809L63.4971 14.3833C62.4342 14.218 61.6921 13.8142 61.2797 13.1625C60.8674 12.5108 60.6567 11.648 60.6567 10.5557C60.6567 10.0233 60.6933 9.44504 60.7758 8.82088C60.8582 8.19672 60.9774 7.5542 61.1423 6.91168C61.463 5.40635 61.9303 4.20392 62.5442 3.29521C63.1581 2.39568 63.9094 1.69809 64.7982 1.21161C65.687 0.725129 66.7224 0.40387 67.9044 0.23865C69.0681 0.0826097 70.3875 0 71.8444 0C72.8431 0 73.851 0.0275366 74.8772 0.0826097C75.9035 0.137683 76.8656 0.220292 77.7543 0.330439C78.6431 0.431406 79.3945 0.55991 79.9901 0.697593L78.918 5.63582C78.3408 5.56239 77.6536 5.49813 76.8564 5.4247C76.0592 5.35127 75.2438 5.30538 74.4099 5.26866C73.5761 5.23195 72.7881 5.21359 72.046 5.21359C71.5145 5.21359 71.0655 5.23195 70.6899 5.26866C70.3234 5.30538 70.0027 5.35127 69.7553 5.40634C69.4987 5.46142 69.2788 5.55321 69.0956 5.66335C68.9306 5.78268 68.784 5.92036 68.6649 6.0764C68.5366 6.24162 68.4358 6.4252 68.3717 6.63631C68.2984 6.84742 68.2526 7.05854 68.2159 7.27883C68.1793 7.49912 68.161 7.72859 68.161 7.95807C68.161 8.27933 68.2892 8.49962 68.5641 8.61894C68.8298 8.73827 69.3338 8.84841 70.076 8.96774L74.0709 9.5919C74.7856 9.71123 75.4637 9.88562 76.0867 10.1151C76.7098 10.3446 77.2229 10.7484 77.6169 11.3359C78.0109 11.9142 78.2033 12.777 78.2033 13.906C78.2033 14.1813 78.1942 14.4842 78.1667 14.8055C78.1392 15.1268 78.1025 15.4847 78.0476 15.8702C77.9926 16.2557 77.9101 16.6504 77.8185 17.0727C77.452 18.7616 76.9664 20.1017 76.3616 21.093C75.7569 22.0751 75.033 22.8186 74.19 23.3051C73.3471 23.7916 72.3758 24.1128 71.2763 24.2597C70.1676 24.4066 68.9123 24.48 67.5012 24.48Z" fill="#EE2D42"/>
<path d="M0 29.115V26.3154H1.81423V26.6183H0.348185V27.5454H1.62181V27.8483H0.348185V28.8121H1.81423V29.115H0Z" fill="black"/>
<path d="M3.71875 29.115L4.77247 26.3154H5.21228L6.266 29.115H5.90865L5.6246 28.3531H4.36014L4.0761 29.115H3.71875ZM4.4701 28.0411H5.51465L5.00154 26.6734H4.98321L4.4701 28.0411Z" fill="black"/>
<path d="M9.22694 29.1431C9.12615 29.1431 9.0162 29.1431 8.89708 29.1339C8.77797 29.1247 8.65885 29.1247 8.5489 29.1156C8.43895 29.1064 8.33815 29.0972 8.24653 29.088V28.7943C8.34732 28.8035 8.44811 28.8127 8.5489 28.8218C8.65885 28.831 8.75964 28.8402 8.86043 28.8402C8.96122 28.8494 9.04369 28.8494 9.11699 28.8494C9.26359 28.8494 9.37355 28.8402 9.46517 28.831C9.54764 28.8218 9.62094 28.7943 9.68508 28.7576C9.72173 28.7301 9.75838 28.7025 9.77671 28.6566C9.79503 28.6199 9.8042 28.5648 9.81336 28.5098C9.81336 28.4547 9.82252 28.3996 9.82252 28.3354C9.82252 28.2436 9.82252 28.1701 9.81336 28.1151C9.8042 28.06 9.79503 28.0141 9.76754 27.9866C9.74006 27.959 9.70341 27.9315 9.65759 27.9131C9.60261 27.8948 9.53848 27.8856 9.44685 27.8764L8.75048 27.803C8.6222 27.7846 8.51225 27.7571 8.43895 27.7204C8.35648 27.6837 8.3015 27.6286 8.26485 27.5735C8.2282 27.5093 8.20071 27.4358 8.18239 27.3532C8.17323 27.2706 8.16406 27.1696 8.16406 27.0687C8.16406 26.8943 8.18239 26.7566 8.2282 26.6556C8.27402 26.5547 8.33816 26.4721 8.42062 26.417C8.50308 26.3619 8.61304 26.3252 8.73215 26.3068C8.85127 26.2885 8.99787 26.2793 9.15364 26.2793C9.25443 26.2793 9.36438 26.2793 9.47434 26.2885C9.58429 26.2977 9.68508 26.2977 9.77671 26.3068C9.86833 26.316 9.9508 26.3252 10.0149 26.3435V26.6281C9.94164 26.6189 9.85917 26.6097 9.76754 26.6006C9.67592 26.5914 9.58429 26.5822 9.4835 26.5822C9.38271 26.5822 9.30024 26.573 9.20862 26.573C9.06201 26.573 8.9429 26.5822 8.85127 26.5914C8.75964 26.6006 8.68634 26.6281 8.63136 26.6648C8.56722 26.7015 8.53057 26.7474 8.52141 26.8117C8.50308 26.8759 8.50308 26.9494 8.50308 27.0411C8.50308 27.1513 8.51225 27.2247 8.52141 27.289C8.53974 27.344 8.56722 27.3899 8.6222 27.4083C8.66801 27.4358 8.75048 27.445 8.85127 27.4634L9.52931 27.5368C9.6301 27.546 9.71257 27.5552 9.78587 27.5735C9.85917 27.5919 9.92331 27.6194 9.97829 27.6653C10.0333 27.702 10.0699 27.7663 10.0974 27.8397C10.1157 27.8764 10.1249 27.9223 10.1341 27.9682C10.1432 28.0141 10.1524 28.0692 10.1524 28.1242C10.1524 28.1793 10.1615 28.2436 10.1615 28.3078C10.1615 28.4639 10.1432 28.5924 10.1157 28.6933C10.0882 28.7943 10.0424 28.8769 9.98745 28.932C9.93247 28.9871 9.86833 29.033 9.78587 29.0697C9.70341 29.0972 9.62094 29.1156 9.52015 29.1247C9.43769 29.1431 9.33689 29.1431 9.22694 29.1431Z" fill="black"/>
<path d="M13.0678 29.115V28.0411L12.0508 26.3154H12.4265L13.2328 27.6923H13.2694L14.0666 26.3154H14.4331L13.416 28.0411V29.115H13.0678Z" fill="black"/>
<path d="M19.3711 29.115V26.3154H20.5897C20.773 26.3154 20.9104 26.3338 21.0204 26.3797C21.1303 26.4256 21.2036 26.4898 21.2586 26.5633C21.3136 26.6459 21.3502 26.7377 21.3686 26.8386C21.3869 26.9488 21.3961 27.0589 21.3961 27.1874C21.3961 27.3067 21.3869 27.4261 21.3686 27.527C21.3502 27.6372 21.3136 27.729 21.2586 27.8116C21.2036 27.8942 21.1212 27.9584 21.0112 28.0043C20.9013 28.0502 20.7547 28.0778 20.5806 28.0778H19.7193V29.1058H19.3711V29.115ZM19.7193 27.7749H20.4706C20.5989 27.7749 20.7089 27.7657 20.7822 27.7382C20.8555 27.7198 20.9196 27.6831 20.9562 27.6372C20.9929 27.5913 21.0204 27.527 21.0296 27.4536C21.0387 27.3802 21.0479 27.2884 21.0479 27.1874C21.0479 27.0865 21.0387 26.9947 21.0296 26.9212C21.0204 26.8478 20.9929 26.7927 20.9562 26.7377C20.9196 26.6918 20.8646 26.655 20.7822 26.6367C20.7089 26.6092 20.5989 26.6 20.4706 26.6H19.7101V27.7749H19.7193Z" fill="black"/>
<path d="M23.0898 29.115L24.1436 26.3154H24.5834L25.6371 29.115H25.2797L24.9957 28.3531H23.7312L23.4472 29.115H23.0898ZM23.832 28.0411H24.8766L24.3635 26.6734H24.3451L23.832 28.0411Z" fill="black"/>
<path d="M28.0913 29.115V28.0411L27.0742 26.3154H27.4499L28.2562 27.6923H28.2837L29.09 26.3154H29.4565L28.4395 28.0411V29.115H28.0913Z" fill="black"/>
<path d="M31.4727 29.115V26.3154H31.9491L32.902 28.5459H32.9204L33.8733 26.3154H34.3406V29.115H34.0016V26.8753H33.9832L33.0303 29.115H32.7738L31.8208 26.8753H31.8025V29.115H31.4727Z" fill="black"/>
<path d="M36.7148 29.115V26.3154H38.5382V26.6183H37.0722V27.5454H38.3458V27.8483H37.0722V28.8121H38.5382V29.115H36.7148Z" fill="black"/>
<path d="M40.7383 29.115V26.3154H41.0956L42.5434 28.4633H42.5617V26.3154H42.8915V29.115H42.5617L41.0865 26.9304H41.0681V29.115H40.7383Z" fill="black"/>
<path d="M45.8601 29.115V26.6275H44.9805V26.3154H47.0971V26.6275H46.2174V29.115H45.8601Z" fill="black"/>
<path d="M52.4301 29.1431C52.3293 29.1431 52.2193 29.1431 52.1002 29.1339C51.9811 29.1247 51.862 29.1247 51.752 29.1156C51.6421 29.1064 51.5413 29.0972 51.4497 29.088V28.7943C51.5504 28.8035 51.6512 28.8127 51.752 28.8218C51.862 28.831 51.9628 28.8402 52.0636 28.8402C52.1643 28.8494 52.2468 28.8494 52.3201 28.8494C52.4667 28.8494 52.5767 28.8402 52.6683 28.831C52.7508 28.8218 52.8241 28.7943 52.8882 28.7576C52.9249 28.7301 52.9615 28.7025 52.9798 28.6566C52.9982 28.6199 53.0073 28.5648 53.0165 28.5098C53.0165 28.4547 53.0256 28.3996 53.0256 28.3354C53.0256 28.2436 53.0256 28.1701 53.0165 28.1151C53.0073 28.06 52.9982 28.0141 52.9707 27.9866C52.9432 27.959 52.9065 27.9315 52.8607 27.9131C52.8057 27.8948 52.7416 27.8856 52.65 27.8764L51.9536 27.803C51.8253 27.7846 51.7154 27.7571 51.6421 27.7204C51.5596 27.6837 51.5046 27.6286 51.468 27.5735C51.4313 27.5093 51.4038 27.4358 51.3855 27.3532C51.3764 27.2706 51.3672 27.1696 51.3672 27.0687C51.3672 26.8943 51.3855 26.7566 51.4313 26.6556C51.4771 26.5547 51.5413 26.4721 51.6237 26.417C51.7062 26.3619 51.8162 26.3252 51.9353 26.3068C52.0544 26.2885 52.201 26.2793 52.3568 26.2793C52.4576 26.2793 52.5675 26.2793 52.6775 26.2885C52.7874 26.2977 52.8882 26.2977 52.9798 26.3068C53.0715 26.316 53.1539 26.3252 53.2181 26.3435V26.6281C53.1448 26.6189 53.0623 26.6097 52.9707 26.6006C52.879 26.5914 52.7874 26.5822 52.6866 26.5822C52.5858 26.5822 52.5034 26.573 52.4117 26.573C52.2651 26.573 52.146 26.5822 52.0544 26.5914C51.9628 26.6006 51.8895 26.6281 51.8345 26.6648C51.7704 26.7015 51.7337 26.7474 51.7245 26.8117C51.7062 26.8759 51.7062 26.9494 51.7062 27.0411C51.7062 27.1513 51.7154 27.2247 51.7245 27.289C51.7429 27.344 51.7703 27.3899 51.8253 27.4083C51.8711 27.4358 51.9536 27.445 52.0544 27.4634L52.7324 27.5368C52.8332 27.546 52.9157 27.5552 52.989 27.5735C53.0623 27.5919 53.1264 27.6194 53.1814 27.6653C53.2364 27.702 53.273 27.7663 53.3005 27.8397C53.3189 27.8764 53.328 27.9223 53.3372 27.9682C53.3463 28.0141 53.3555 28.0692 53.3555 28.1242C53.3555 28.1793 53.3647 28.2436 53.3647 28.3078C53.3647 28.4639 53.3463 28.5924 53.3189 28.6933C53.2914 28.7943 53.2455 28.8769 53.1906 28.932C53.1356 28.9871 53.0715 29.033 52.989 29.0697C52.9065 29.0972 52.8241 29.1156 52.7233 29.1247C52.65 29.1431 52.5492 29.1431 52.4301 29.1431Z" fill="black"/>
<path d="M56.2696 29.115V28.0411L55.2617 26.3154H55.6374L56.4437 27.6923H56.4712L57.2775 26.3154H57.6349L56.627 28.0411V29.115H56.2696Z" fill="black"/>
<path d="M60.5277 29.1431C60.4269 29.1431 60.317 29.1431 60.1979 29.1339C60.0787 29.1247 59.9596 29.1247 59.8497 29.1156C59.7397 29.1064 59.6389 29.0972 59.5473 29.088V28.7943C59.6481 28.8035 59.7489 28.8127 59.8497 28.8218C59.9596 28.831 60.0604 28.8402 60.1612 28.8402C60.262 28.8494 60.3445 28.8494 60.4178 28.8494C60.5644 28.8494 60.6743 28.8402 60.766 28.831C60.8484 28.8218 60.9217 28.7943 60.9859 28.7576C61.0225 28.7301 61.0592 28.7025 61.0775 28.6566C61.0958 28.6199 61.105 28.5648 61.1141 28.5098C61.1141 28.4547 61.1233 28.3996 61.1233 28.3354C61.1233 28.2436 61.1233 28.1701 61.1141 28.1151C61.105 28.06 61.0958 28.0141 61.0683 27.9866C61.0408 27.959 61.0042 27.9315 60.9584 27.9131C60.9034 27.8948 60.8393 27.8856 60.7476 27.8764L60.0513 27.803C59.923 27.7846 59.813 27.7571 59.7397 27.7204C59.6573 27.6837 59.6023 27.6286 59.5656 27.5735C59.529 27.5093 59.5015 27.4358 59.4832 27.3532C59.474 27.2706 59.4648 27.1696 59.4648 27.0687C59.4648 26.8943 59.4832 26.7566 59.529 26.6556C59.5748 26.5547 59.6389 26.4721 59.7214 26.417C59.8039 26.3619 59.9138 26.3252 60.0329 26.3068C60.152 26.2885 60.2986 26.2793 60.4544 26.2793C60.5552 26.2793 60.6652 26.2793 60.7751 26.2885C60.8851 26.2977 60.9859 26.2977 61.0775 26.3068C61.1691 26.316 61.2516 26.3252 61.3157 26.3435V26.6281C61.2424 26.6189 61.1599 26.6097 61.0683 26.6006C60.9767 26.5914 60.8851 26.5822 60.7843 26.5822C60.6927 26.5822 60.601 26.573 60.5094 26.573C60.3628 26.573 60.2437 26.5822 60.152 26.5914C60.0604 26.6006 59.9871 26.6281 59.9321 26.6648C59.868 26.7015 59.8314 26.7474 59.8222 26.8117C59.8039 26.8759 59.8039 26.9494 59.8039 27.0411C59.8039 27.1513 59.813 27.2247 59.8222 27.289C59.8405 27.344 59.868 27.3899 59.923 27.4083C59.9688 27.4358 60.0513 27.445 60.152 27.4634L60.8301 27.5368C60.9309 27.546 61.0133 27.5552 61.0866 27.5735C61.1599 27.5919 61.2241 27.6194 61.2791 27.6653C61.334 27.702 61.3707 27.7663 61.3982 27.8397C61.4165 27.8764 61.4257 27.9223 61.4348 27.9682C61.444 28.0141 61.4532 28.0692 61.4532 28.1242C61.4532 28.1793 61.4623 28.2436 61.4623 28.3078C61.4623 28.4639 61.444 28.5924 61.4165 28.6933C61.389 28.7943 61.3432 28.8769 61.2882 28.932C61.2333 28.9871 61.1691 29.033 61.0866 29.0697C61.0042 29.0972 60.9217 29.1156 60.8209 29.1247C60.7385 29.1431 60.6377 29.1431 60.5277 29.1431Z" fill="black"/>
<path d="M64.3054 29.115V26.6275H63.4258V26.3154H65.5424V26.6275H64.6628V29.115H64.3054Z" fill="black"/>
<path d="M67.6406 29.115V26.3154H69.4549V26.6183H67.9888V27.5454H69.2624V27.8483H67.9888V28.8121H69.4549V29.115H67.6406Z" fill="black"/>
<path d="M71.6523 29.115V26.3154H72.1196L73.0726 28.5459H73.0909L74.0438 26.3154H74.5203V29.115H74.1721V26.8753H74.1629L73.2008 29.115H72.9443L71.9914 26.8753H71.9822V29.115H71.6523Z" fill="black"/>
<path d="M13.9533 6.84745H4.47905C3.99343 6.84745 3.62692 6.41604 3.72771 5.96628L4.9097 0.844479C4.983 0.514041 5.29454 0.275391 5.66105 0.275391H15.1353C15.621 0.275391 15.9875 0.706797 15.8867 1.15656L14.7047 6.27836C14.6314 6.6088 14.3107 6.84745 13.9533 6.84745Z" fill="#0D6B4F"/>
<path d="M12.1135 15.5213H2.63921C2.15358 15.5213 1.78707 15.0899 1.88786 14.6401L3.06986 9.51831C3.14316 9.18787 3.45469 8.94922 3.8212 8.94922H13.2863C13.772 8.94922 14.1385 9.38062 14.0377 9.83039L12.8557 14.9522C12.7824 15.2826 12.4708 15.5213 12.1135 15.5213Z" fill="#EE2D42"/>
<path d="M10.2424 24.3426H0.768115C0.282489 24.3426 -0.0840206 23.9112 0.0167697 23.4614L1.19876 18.3396C1.27207 18.0092 1.5836 17.7705 1.95011 17.7705H11.4244C11.91 17.7705 12.2765 18.2019 12.1757 18.6517L10.9937 23.7735C10.9113 24.1131 10.5997 24.3426 10.2424 24.3426Z" fill="#0D6B4F"/>
</g>
<defs>
<clipPath id="clip0_3694_1377">
<rect width="80" height="29.1429" fill="white"/>
</clipPath>
</defs>
</svg>
